# xmcd CD database file
#
# Track frame offsets:
#	150
#	34603
#	46564
#	57765
#	90825
#
# Disc length: 1448 seconds
#
# Revision: 1
# Processed by: cddbd v1.5.2PL0 Copyright (c) Steve Scherf et al.
# Submitted via: CDex 1.51
#
DISCID=2805a605
DTITLE=Amy Whinehouse - Remixes
DYEAR=2007
DGENRE=Blues
TTITLE0=Rehab (Soulcast Remix)
TTITLE1=Love Is A Losing Game (Original)
TTITLE2=Love Is A Losing Game (Kardinal beats mix)
TTITLE3=Love Is A Losing Game (Moody boyz vocal mix)
TTITLE4=Love Is A Losing Game (Truth and Soul mix)
EXTD=YEAR: 2007
EXTT0=
EXTT1=
EXTT2=
EXTT3=
EXTT4=
PLAYORDER=
